<?xml version="1.0" encoding="utf-8"?>
<!-- Generator: Adobe Illustrator 27.3.1, SVG Export Plug-In . SVG Version: 6.00 Build 0)  -->
<svg version="1.1" id="Layer_2" xmlns="http://www.w3.org/2000/svg" xmlns:xlink="http://www.w3.org/1999/xlink" x="0px" y="0px"
	 viewBox="0 0 300 150" style="enable-background:new 0 0 300 150;" xml:space="preserve">
<style type="text/css">
	.st0{fill:#606060;}
	.st1{fill:#035AA6;}
	.st2{fill:#F6490D;}
</style>
<g>
	<g>
		<path class="st0" d="M143.54,124.33v-16.87h3.38v16.87H143.54z"/>
		<path class="st0" d="M151.32,124.33v-16.87h2.98l10.42,12.41v-12.41h3.35v16.87h-2.98l-10.39-12.39v12.39H151.32z"/>
		<path class="st0" d="M172.47,124.33v-16.87h13.58v2.22h-10.2v5.11h9.05v2.2h-9.05v7.33H172.47z"/>
		<path class="st0" d="M199.9,124.6c-3.16,0-5.53-0.7-7.1-2.11s-2.36-3.58-2.36-6.54c0-3.07,0.79-5.3,2.36-6.68s3.94-2.07,7.1-2.07
			c3.18,0,5.56,0.69,7.12,2.07s2.34,3.61,2.34,6.68c0,2.95-0.78,5.13-2.34,6.54S203.09,124.6,199.9,124.6z M199.9,122.19
			c2.09,0,3.62-0.49,4.61-1.45c0.98-0.97,1.47-2.56,1.47-4.78c0-2.34-0.49-3.98-1.47-4.91c-0.98-0.93-2.52-1.4-4.61-1.4
			c-2.07,0-3.59,0.47-4.57,1.4s-1.47,2.57-1.47,4.91c0,2.22,0.49,3.81,1.47,4.78C196.31,121.7,197.84,122.19,199.9,122.19z"/>
		<path class="st0" d="M220.43,124.6c-2.59,0-4.66-0.28-6.23-0.84v-2.51c0.89,0.28,1.84,0.51,2.87,0.68
			c1.02,0.17,2.04,0.26,3.05,0.26c1.59,0,2.79-0.16,3.58-0.47c0.79-0.31,1.19-0.94,1.19-1.89c0-0.58-0.17-1.04-0.5-1.39
			c-0.33-0.35-0.88-0.65-1.64-0.9c-0.76-0.25-1.82-0.52-3.16-0.8c-2.15-0.47-3.66-1.07-4.53-1.79c-0.87-0.72-1.3-1.72-1.3-3
			c0-1.48,0.64-2.64,1.92-3.48c1.28-0.84,3.2-1.26,5.74-1.26c1.16,0,2.25,0.07,3.27,0.21c1.02,0.14,1.83,0.3,2.4,0.47v2.52
			c-1.57-0.51-3.31-0.76-5.21-0.76c-1.49,0-2.65,0.17-3.47,0.5c-0.83,0.33-1.24,0.94-1.24,1.81c0,0.51,0.14,0.92,0.43,1.23
			c0.29,0.31,0.79,0.58,1.5,0.81c0.71,0.23,1.7,0.48,2.96,0.76c1.63,0.35,2.9,0.76,3.8,1.24c0.9,0.48,1.53,1.04,1.89,1.68
			c0.36,0.64,0.54,1.36,0.54,2.16c0,1.49-0.65,2.65-1.95,3.5C225.05,124.17,223.07,124.6,220.43,124.6z"/>
		<path class="st0" d="M232.7,124.33v-16.87h13.92v2.22h-10.54v5.11h9.39v2.2h-9.39v5.13h10.54v2.2H232.7z"/>
		<path class="st0" d="M251.02,124.33v-16.87h9.18c2.23,0,3.86,0.48,4.88,1.45c1.02,0.97,1.53,2.28,1.53,3.94
			c0,1.19-0.35,2.2-1.05,3.04c-0.7,0.84-1.72,1.42-3.04,1.76c0.37,0.23,0.66,0.47,0.87,0.73c0.21,0.26,0.41,0.61,0.62,1.05l2.51,4.9
			h-3.47l-2.45-4.71c-0.23-0.45-0.5-0.78-0.82-0.97c-0.32-0.19-0.86-0.29-1.63-0.29h-3.75v5.97H251.02z M254.41,116.06h4.9
			c1.22,0,2.18-0.25,2.88-0.76c0.7-0.51,1.05-1.32,1.05-2.44c0-2.11-1.21-3.17-3.63-3.17h-5.21V116.06z"/>
		<path class="st0" d="M278.65,124.33l-7.63-16.87h3.51l5.98,13.8l5.99-13.8H290l-7.57,16.87H278.65z"/>
	</g>
	<g>
		<path class="st0" d="M111.57,96.76c-6.6,0-11.63-1.84-15.08-5.53c-3.46-3.69-5.18-8.81-5.18-15.38c0-6.86,1.69-12.17,5.07-15.92
			c3.38-3.75,8.43-5.63,15.14-5.63c2.3,0,4.36,0.19,6.18,0.58c1.82,0.38,3.56,0.89,5.24,1.53v9.02c-3.4-1.53-6.97-2.3-10.72-2.3
			c-3.91,0-6.77,1.02-8.58,3.07c-1.82,2.05-2.72,5.27-2.72,9.66c0,4.18,0.96,7.25,2.87,9.21c1.91,1.96,4.76,2.94,8.55,2.94
			c1.84,0,3.65-0.18,5.45-0.54c1.8-0.36,3.53-0.93,5.21-1.69v9.08c-1.64,0.6-3.38,1.07-5.21,1.41
			C115.94,96.59,113.87,96.76,111.57,96.76z"/>
		<path class="st0" d="M125.71,96.12V54.94h18.86c4.45,0,7.73,1.28,9.84,3.84c2.11,2.56,3.16,5.99,3.16,10.29
			c0,2.77-0.64,5.2-1.93,7.29c-1.29,2.09-3.05,3.65-5.27,4.67c0.55,0.47,0.99,0.99,1.32,1.57c0.33,0.58,0.69,1.38,1.08,2.4
			l4.45,11.13h-9.84l-4.22-10.49c-0.35-0.9-0.8-1.54-1.35-1.95c-0.55-0.4-1.33-0.61-2.34-0.61h-4.33v13.04H125.71z M135.14,75.14
			h6.97c1.83,0,3.27-0.5,4.3-1.5c1.03-1,1.55-2.53,1.55-4.57c0-4.14-1.81-6.2-5.45-6.2h-7.38V75.14z"/>
		<path class="st0" d="M160.29,96.12V54.94h27.82v7.93h-18.39v8.63h16.23v8.06h-16.23v8.63h18.39v7.93H160.29z"/>
		<path class="st0" d="M204.02,96.76c-2.5,0-4.83-0.2-7-0.61c-2.17-0.4-4.03-0.99-5.59-1.76v-8.76c1.72,0.81,3.62,1.47,5.71,1.98
			c2.09,0.51,4.07,0.77,5.95,0.77c2.34,0,4.09-0.23,5.24-0.7c1.15-0.47,1.73-1.49,1.73-3.07c0-1.06-0.28-1.92-0.85-2.56
			c-0.57-0.64-1.49-1.2-2.75-1.69c-1.27-0.49-3-1.08-5.18-1.76c-2.58-0.85-4.63-1.8-6.15-2.85c-1.52-1.04-2.62-2.31-3.28-3.8
			c-0.66-1.49-1-3.33-1-5.5c0-3.92,1.29-6.93,3.87-9.02c2.58-2.09,6.39-3.13,11.42-3.13c2.19,0,4.31,0.18,6.38,0.54
			c2.07,0.36,3.75,0.78,5.04,1.25v8.82c-1.68-0.72-3.37-1.26-5.07-1.6c-1.7-0.34-3.35-0.51-4.95-0.51c-2.11,0-3.82,0.21-5.13,0.64
			c-1.31,0.43-1.96,1.41-1.96,2.94c0,0.9,0.23,1.61,0.7,2.14c0.47,0.53,1.28,1.01,2.43,1.44c1.15,0.43,2.72,0.94,4.72,1.53
			c3.08,0.9,5.45,1.97,7.09,3.23c1.64,1.26,2.77,2.71,3.4,4.35c0.62,1.64,0.94,3.48,0.94,5.53c0,3.62-1.29,6.55-3.87,8.79
			C213.27,95.64,209.33,96.76,204.02,96.76z"/>
		<path class="st0" d="M241.24,96.76c-6.13,0-10.8-1.7-14-5.12c-3.2-3.41-4.8-8.72-4.8-15.92c0-7.63,1.6-13.11,4.8-16.43
			c3.2-3.33,7.87-4.99,14-4.99c6.13,0,10.8,1.66,14,4.99c3.2,3.33,4.8,8.8,4.8,16.43c0,7.2-1.6,12.51-4.8,15.92
			C252.04,95.05,247.37,96.76,241.24,96.76z M241.24,88c3.16,0,5.48-0.99,6.94-2.97c1.47-1.98,2.2-5.08,2.2-9.3
			c0-4.6-0.73-7.86-2.2-9.75c-1.46-1.9-3.78-2.85-6.94-2.85c-3.2,0-5.54,0.95-7,2.85c-1.47,1.9-2.2,5.15-2.2,9.75
			c0,4.22,0.73,7.32,2.2,9.3C235.7,87.01,238.04,88,241.24,88z"/>
		<path class="st0" d="M262.76,96.12V54.94h9.43v33.25H290v7.93H262.76z"/>
	</g>
	<path class="st1" d="M79.24,144.24h5.18V107.2h-5.18c-17.8,0-32.2-14.41-32.2-32.2s14.41-32.2,32.2-32.2h5.13V5.76h-5.13
		c-24.43,0-45.91,12.66-58.18,31.76C14.04,48.28,10,61.19,10,75c0,13.81,4.04,26.72,11.07,37.49
		C33.33,131.58,54.82,144.24,79.24,144.24z"/>
	<path class="st2" d="M135.47,42.8V5.76h-7.13c-20.46,0-37.04,16.58-37.04,37.04v0H135.47z"/>
	<rect x="91.3" y="107.2" class="st2" width="44.14" height="37.04"/>
</g>
<g id="Layer_3">
</g>
</svg>
